<?xml version="1.0" standalone="no"?>
<!DOCTYPE svg PUBLIC "-//W3C//DTD SVG 20010904//EN"
 "http://www.w3.org/TR/2001/REC-SVG-20010904/DTD/svg10.dtd">
<svg version="1.0" xmlns="http://www.w3.org/2000/svg"
 width="260.000000pt" height="260.000000pt" viewBox="0 0 260.000000 260.000000"
 preserveAspectRatio="xMidYMid meet">
<metadata>
Created by potrace 1.11, written by Peter Selinger 2001-2013
</metadata>
<g transform="translate(0.000000,260.000000) scale(0.100000,-0.100000)"
fill="#000000" stroke="none">
<path d="M1210 2425 l0 -175 90 0 90 0 0 175 0 175 -90 0 -90 0 0 -175z"/>
<path d="M1210 1905 l0 -175 90 0 90 0 0 175 0 175 -90 0 -90 0 0 -175z"/>
<path d="M1210 1475 l0 -85 -85 0 -85 0 0 -90 0 -90 85 0 85 0 0 -85 0 -85 90
0 90 0 0 85 0 85 85 0 85 0 0 90 0 90 -85 0 -85 0 0 85 0 85 -90 0 -90 0 0
-85z"/>
<path d="M0 1300 l0 -90 175 0 175 0 0 90 0 90 -175 0 -175 0 0 -90z"/>
<path d="M520 1300 l0 -90 175 0 175 0 0 90 0 90 -175 0 -175 0 0 -90z"/>
<path d="M1730 1300 l0 -90 175 0 175 0 0 90 0 90 -175 0 -175 0 0 -90z"/>
<path d="M2250 1300 l0 -90 175 0 175 0 0 90 0 90 -175 0 -175 0 0 -90z"/>
<path d="M1210 695 l0 -175 90 0 90 0 0 175 0 175 -90 0 -90 0 0 -175z"/>
<path d="M1210 175 l0 -175 90 0 90 0 0 175 0 175 -90 0 -90 0 0 -175z"/>
</g>
</svg>
